<svg width="400" height="400" viewBox="0 0 400 400" fill="none" xmlns="http://www.w3.org/2000/svg">
<path fill-rule="evenodd" clip-rule="evenodd" d="M0 110C0 49.2487 49.2487 0 110 0H290C350.751 0 400 49.2487 400 110V290C400 350.751 350.751 400 290 400H110C49.2487 400 0 350.751 0 290V110ZM27 114C27 65.9513 65.9512 27 114 27H286C334.049 27 373 65.9512 373 114V286C373 334.049 334.049 373 286 373H114C65.9512 373 27 334.049 27 286V114ZM132 185C161.823 185 186 160.823 186 131C186 101.177 161.823 77 132 77C102.177 77 78 101.177 78 131C78 133.065 78.1159 135.102 78.3415 137.107C78.1192 137.866 78 138.669 78 139.5V176.5C78 181.194 81.8056 185 86.5 185C91.1944 185 95 181.194 95 176.5V170.332C104.665 179.427 117.682 185 132 185ZM269 322C298.823 322 323 297.823 323 268C323 238.177 298.823 214 269 214C239.177 214 215 238.177 215 268C215 270.065 215.116 272.102 215.342 274.107C215.119 274.866 215 275.669 215 276.5V313.5C215 318.194 218.806 322 223.5 322C228.194 322 232 318.194 232 313.5V307.332C241.665 316.427 254.682 322 269 322ZM116.354 284.253C110.692 278.59 110.692 269.41 116.354 263.747L264.14 115.962C269.802 110.299 278.983 110.299 284.646 115.962C290.308 121.624 290.308 130.805 284.646 136.468L136.86 284.253C131.198 289.916 122.017 289.916 116.354 284.253Z" fill="white"/>
</svg>
