<svg width="1456" height="400" viewBox="0 0 1456 400" fill="none" xmlns="http://www.w3.org/2000/svg">
<path fill-rule="evenodd" clip-rule="evenodd" d="M110 0C49.2487 0 0 49.2487 0 110V290C0 350.751 49.2487 400 110 400H290C350.751 400 400 350.751 400 290V110C400 49.2487 350.751 0 290 0H110ZM114 27C65.9512 27 27 65.9512 27 114V286C27 334.049 65.9512 373 114 373H286C334.049 373 373 334.049 373 286V114C373 65.9512 334.049 27 286 27H114ZM186 131C186 160.823 161.823 185 132 185C117.682 185 104.665 179.427 95 170.332V176.5C95 181.194 91.1944 185 86.5 185C81.8056 185 78 181.194 78 176.5V139.5C78 138.669 78.1192 137.866 78.3415 137.107C78.1159 135.102 78 133.065 78 131C78 101.177 102.177 77 132 77C161.823 77 186 101.177 186 131ZM1452.86 307.216C1456.18 310.513 1456.18 315.859 1452.86 319.156C1449.54 322.454 1444.16 322.454 1440.84 319.156L1401.37 279.951L1361.53 319.527C1358.21 322.824 1352.83 322.824 1349.51 319.527C1346.19 316.23 1346.19 310.884 1349.51 307.586L1389.35 268.01L1349.49 228.414C1346.17 225.116 1346.17 219.77 1349.49 216.473C1352.81 213.176 1358.19 213.176 1361.51 216.473L1401.37 256.07L1440.86 216.844C1444.18 213.546 1449.56 213.546 1452.88 216.844C1456.2 220.141 1456.2 225.487 1452.88 228.784L1413.39 268.01L1452.86 307.216ZM1078 268C1078 297.823 1053.82 322 1024 322C1009.68 322 996.665 316.427 987 307.332V313.5C987 318.194 983.194 322 978.5 322C973.806 322 970 318.194 970 313.5V269.5C970 269.357 970.004 269.215 970.01 269.074C970.003 268.717 970 268.359 970 268C970 238.177 994.177 214 1024 214C1053.82 214 1078 238.177 1078 268ZM1277 253.5C1277 261.508 1270.51 268 1262.5 268C1254.49 268 1248 261.508 1248 253.5C1248 245.492 1254.49 239 1262.5 239C1270.51 239 1277 245.492 1277 253.5ZM1104.5 322C1104.33 322 1104.17 321.995 1104 321.986C1103.84 321.995 1103.67 322 1103.5 322C1098.81 322 1095 318.194 1095 313.5V222.5C1095 217.806 1098.81 214 1103.5 214C1108.19 214 1112 217.806 1112 222.5V305H1195.5C1200.19 305 1204 308.806 1204 313.5C1204 318.194 1200.19 322 1195.5 322H1104.5ZM1229.5 214C1224.81 214 1221 217.806 1221 222.5V313.5C1221 318.194 1224.81 322 1229.5 322C1229.55 322 1229.61 322 1229.66 321.999L1229.7 321.998L1229.75 321.996C1229.83 321.994 1229.92 321.99 1230 321.986C1230.09 321.991 1230.19 321.995 1230.28 321.997C1230.36 321.999 1230.43 322 1230.5 322H1321.5C1326.19 322 1330 318.194 1330 313.5C1330 308.806 1326.19 305 1321.5 305H1238V231H1320.5C1325.19 231 1329 227.194 1329 222.5C1329 217.806 1325.19 214 1320.5 214H1229.5ZM269 322C298.823 322 323 297.823 323 268C323 238.177 298.823 214 269 214C239.177 214 215 238.177 215 268C215 270.065 215.116 272.102 215.342 274.107C215.119 274.866 215 275.669 215 276.5V313.5C215 318.194 218.806 322 223.5 322C228.194 322 232 318.194 232 313.5V307.332C241.665 316.427 254.682 322 269 322ZM515 185C544.823 185 569 160.823 569 131C569 101.177 544.823 77 515 77C485.177 77 461 101.177 461 131C461 131.599 461.01 132.196 461.029 132.791C461.01 133.025 461 133.261 461 133.5V176.5C461 181.194 464.806 185 469.5 185C474.194 185 478 181.194 478 176.5V170.332C487.665 179.427 500.682 185 515 185ZM817 131V176.5C817 181.194 813.194 185 808.5 185C803.806 185 800 181.194 800 176.5V170.332C790.335 179.427 777.318 185 763 185C733.177 185 709 160.823 709 131C709 101.177 733.177 77 763 77C792.547 77 816.551 100.73 816.994 130.172C816.996 130.225 816.997 130.278 816.998 130.331C816.999 130.387 817 130.444 817 130.5V131ZM586 85.5C586 80.8056 589.806 77 594.5 77C599.194 77 603 80.8056 603 85.5V168H686.5C691.194 168 695 171.805 695 176.5C695 181.194 691.194 185 686.5 185H595.5C595.333 185 595.166 184.995 595.001 184.985C594.835 184.995 594.668 185 594.5 185C589.806 185 586 181.194 586 176.5V85.5ZM882.422 137.033C882.395 137.008 882.368 136.983 882.342 136.957C882.301 136.919 882.261 136.88 882.222 136.841L836.49 91.4136C833.17 88.1163 833.17 82.7703 836.49 79.473C839.809 76.1757 845.191 76.1757 848.51 79.473L888.373 119.07L927.863 79.8435C931.182 76.5462 936.564 76.5462 939.883 79.8435C943.203 83.1408 943.203 88.4868 939.883 91.7841L894.386 136.978C891.085 140.257 885.745 140.275 882.422 137.033ZM903 170.5C903 178.508 896.508 185 888.5 185C880.492 185 874 178.508 874 170.5C874 162.492 880.492 156 888.5 156C896.508 156 903 162.492 903 170.5ZM116.354 263.747C110.692 269.41 110.692 278.59 116.354 284.253C122.017 289.916 131.198 289.916 136.86 284.253L284.646 136.468C290.308 130.805 290.308 121.624 284.646 115.962C278.983 110.299 269.802 110.299 264.14 115.962L116.354 263.747ZM862.253 284.253C856.59 278.59 856.59 269.41 862.253 263.747L1010.04 115.962C1015.7 110.299 1024.88 110.299 1030.54 115.962C1036.21 121.624 1036.21 130.805 1030.54 136.468L882.759 284.253C877.097 289.916 867.916 289.916 862.253 284.253Z" fill="black"/>
</svg>
