<svg width="995" height="245" viewBox="0 0 995 245" fill="none" xmlns="http://www.w3.org/2000/svg">
<path fill-rule="evenodd" clip-rule="evenodd" d="M108 54C108 83.8234 83.8234 108 54 108C39.6815 108 26.6646 102.427 17 93.3322V99.5C17 104.194 13.1944 108 8.5 108C3.80557 108 0 104.194 0 99.5V56.5C0 56.2612 0.00984192 56.0248 0.0291443 55.791C0.00976562 55.1964 0 54.5994 0 54C0 24.1766 24.1766 0 54 0C83.8234 0 108 24.1766 108 54ZM356 99.5V54V53.5L356 53.4185L355.998 53.3309C355.997 53.2777 355.996 53.2246 355.994 53.1718C355.551 23.7302 331.547 0 302 0C272.177 0 248 24.1766 248 54C248 83.8234 272.177 108 302 108C316.318 108 329.335 102.427 339 93.3322V99.5C339 104.194 342.806 108 347.5 108C352.194 108 356 104.194 356 99.5ZM133.5 0C128.806 0 125 3.80554 125 8.5V99.5C125 104.194 128.806 108 133.5 108C133.558 108 133.615 107.999 133.673 107.998C133.783 107.996 133.892 107.992 134.001 107.985C134.166 107.995 134.333 108 134.5 108H225.5C230.194 108 234 104.194 234 99.4999C234 94.8054 230.194 90.9999 225.5 90.9999H142V8.5C142 3.80554 138.194 0 133.5 0ZM421.342 59.9575C421.368 59.9828 421.395 60.0079 421.422 60.0328C424.745 63.275 430.085 63.2566 433.386 59.9778L478.883 14.7842C482.203 11.4868 482.203 6.14087 478.883 2.84351C475.564 -0.453735 470.182 -0.453735 466.863 2.84351L427.373 42.0697L387.51 2.47302C384.191 -0.824341 378.809 -0.824341 375.49 2.47302C372.17 5.77026 372.17 11.1163 375.49 14.4136L421.222 59.8406C421.261 59.88 421.301 59.9189 421.342 59.9575ZM427.5 108C435.508 108 442 101.508 442 93.5C442 85.4918 435.508 79 427.5 79C419.492 79 413 85.4918 413 93.5C413 101.508 419.492 108 427.5 108ZM991.863 230.216C995.182 233.513 995.182 238.859 991.863 242.156C988.543 245.454 983.161 245.454 979.842 242.156L940.373 202.951L900.531 242.527C897.212 245.824 891.83 245.824 888.51 242.527C885.191 239.23 885.191 233.884 888.51 230.586L928.352 191.01L888.49 151.414C885.17 148.116 885.17 142.77 888.49 139.473C891.809 136.176 897.191 136.176 900.51 139.473L940.373 179.07L979.863 139.844C983.182 136.546 988.564 136.546 991.883 139.844C995.203 143.141 995.203 148.487 991.883 151.784L952.394 191.01L991.863 230.216ZM617 191C617 220.823 592.823 245 563 245C548.682 245 535.665 239.427 526 230.332V236.5C526 241.194 522.194 245 517.5 245C512.806 245 509 241.194 509 236.5V192.5C509 192.407 509.002 192.315 509.004 192.223C509.006 192.173 509.008 192.124 509.01 192.074C509.003 191.717 509 191.359 509 191C509 161.177 533.177 137 563 137C592.823 137 617 161.177 617 191ZM816 176.5C816 184.508 809.508 191 801.5 191C793.492 191 787 184.508 787 176.5C787 168.492 793.492 162 801.5 162C809.508 162 816 168.492 816 176.5ZM643.5 245C643.333 245 643.166 244.995 643.001 244.986C642.9 244.991 642.799 244.995 642.697 244.998C642.632 244.999 642.566 245 642.5 245C637.806 245 634 241.194 634 236.5V145.5C634 140.806 637.806 137 642.5 137C647.194 137 651 140.806 651 145.5V228H734.5C739.194 228 743 231.806 743 236.5C743 241.194 739.194 245 734.5 245H643.5ZM768.5 137C763.806 137 760 140.806 760 145.5V236.5C760 241.194 763.806 245 768.5 245L768.573 245L768.614 244.999C768.744 244.998 768.872 244.993 769 244.986C769.165 244.995 769.332 245 769.5 245H860.5C865.194 245 869 241.194 869 236.5C869 231.806 865.194 228 860.5 228H777V154H859.5C864.194 154 868 150.194 868 145.5C868 140.806 864.194 137 859.5 137H768.5ZM401.253 207.253C395.59 201.59 395.59 192.41 401.253 186.747L549.038 38.9617C554.701 33.2991 563.882 33.2991 569.544 38.9617C575.207 44.6243 575.207 53.8052 569.544 59.4678L421.759 207.253C416.097 212.916 406.916 212.916 401.253 207.253Z" fill="white"/>
</svg>
